<?xml version="1.0" encoding="utf-8"?>
<!-- Generator: Adobe Illustrator 28.5.0, SVG Export Plug-In . SVG Version: 9.03 Build 54727)  -->
<svg version="1.0" id="katman_1" xmlns="http://www.w3.org/2000/svg" xmlns:xlink="http://www.w3.org/1999/xlink" x="0px" y="0px"
	 viewBox="0 0 1620.51 988.43" style="enable-background:new 0 0 1620.51 988.43;" xml:space="preserve">
<style type="text/css">
	.st0{fill:#D7BA21;}
	.st1{fill:#ED2B47;}
	.st2{fill:#CF0736;}
	.st3{fill:#FDFDFD;}
	.st4{fill:#53DB5E;}
	.st5{fill:#2A1583;}
	.st6{fill:#045C6E;}
	.st7{fill:#3C8408;}
	.st8{fill:#FCB815;}
	.st9{fill:#068496;}
	.st10{fill:#F69011;}
	.st11{fill:#F1397D;}
	.st12{fill:#AD0428;}
	.st13{fill:#FCC88C;}
</style>
<path class="st0" d="M500.07,133.47c0.79-0.3,1-0.42,1.95-0.54c3.09-0.36,5.27,0.26,7.52,2.44c1.92,1.86,2.44,4.09,2.5,6.65
	c-1.08,3.27-2.19,4.62-4.96,6.65c-0.88,0.28-1.81,0.62-2.75,0.65c-2.83,0.08-5.2-0.47-7.22-2.55c-1.77-1.83-2.27-4.21-2.42-6.65
	C495.88,136.74,497.11,135.45,500.07,133.47z"/>
<path class="st0" d="M1537.72,872.71c2.15-0.83,4.29-1.01,6.6-0.65c2.33,0.36,4.08,1.66,5.44,3.56c1.71,2.4,2.18,4.63,1.58,7.43
	c-0.75,3.55-2.7,5.2-5.59,7.16c-1.36,0.37-2.86,0.81-4.28,0.79c-2.09-0.03-4.31-1.18-5.78-2.61c-2.09-2.03-3.47-5.12-3.31-8.06
	C1532.61,876.41,1534.97,874.86,1537.72,872.71z"/>
<path class="st1" d="M44.94,165.77c1.75-0.45,3.37-0.74,5.17-0.37c2.69,0.54,5.54,2.36,6.98,4.72c1.57,2.56,1.67,6.74,0.79,9.57
	c-1.11,3.56-3.66,4.95-6.8,6.47c-1.64,0.32-3.4,0.36-5.06,0.15c-2.95-0.37-5.39-2.38-6.96-4.83c-1.49-2.32-2.16-5.45-1.39-8.13
	C38.84,169.29,41.48,167.65,44.94,165.77z"/>
<path class="st2" d="M9.81,701.68c1.29-0.03,2.5,0.18,3.74,0.56c3.02,0.93,5.53,3.6,6.82,6.43c1.21,2.66,1.29,6.61-0.01,9.22
	c-1.75,3.5-4.69,4.97-8.23,6.04c-2,0.09-3.8-0.02-5.68-0.8c-2.62-1.1-5.17-3.79-5.96-6.54c-0.76-2.65-0.7-6.46,0.62-8.91
	C3.08,704.03,5.99,702.7,9.81,701.68z"/>
<path class="st1" d="M1025.57,952.52c1.93-0.11,4.05,0.15,5.83,0.93c3.37,1.48,5.54,3.8,6.7,7.3c0.91,2.75,0.44,5.26-0.88,7.79
	c-1.72,3.3-4.85,4.9-8.29,5.84c-1.82,0.16-3.29,0.12-5.07-0.38c-2.89-0.81-5.18-2.66-6.56-5.34c-1.89-3.68-1.32-6.85,0.02-10.58
	C1019.99,955.04,1021.54,953.6,1025.57,952.52z"/>
<path class="st2" d="M1604.21,266.49c1.88-0.33,3.99-0.75,5.88-0.28c3.66,0.9,7.31,3.29,9.1,6.66c1.57,2.97,1.71,8.05,0.57,11.17
	c-1.37,3.71-4.35,5.47-7.65,7.16c-2.47,0.67-5.89,0.84-8.4,0.15c-3.18-0.87-5.85-3.87-7.18-6.79c-1.44-3.19-1.7-7.69-0.3-10.96
	C1597.84,269.81,1600.65,268.06,1604.21,266.49z"/>
<path class="st3" d="M1299.06,95.46c2.94-0.58,5.4-0.28,8.22,0.78c3.38,1.26,6.58,4.64,7.94,7.97c1.41,3.44,0.98,7.61-0.54,10.96
	c-1.88,4.12-5.26,6.18-9.34,7.68c-3.04,0.76-5.61,0.7-8.54-0.55c-3.18-1.35-6.2-4.68-7.46-7.91c-1.48-3.78-1.09-8.5,0.68-12.09
	C1291.9,98.47,1295.2,96.71,1299.06,95.46z"/>
<path class="st1" d="M376.75,76.46c2.71-0.84,6.39-1.03,9.11-0.03c3.79,1.39,7.12,4.27,8.76,8c1.51,3.41,1.4,7.48,0.01,10.9
	c-1.89,4.66-4.67,6.61-9.08,8.54c-2.47,0.63-5.07,0.88-7.56,0.21c-3.87-1.05-7.43-3.56-9.24-7.19c-2-4.03-2.02-7.8-0.54-12.03
	C369.83,80.28,372.66,78.46,376.75,76.46z"/>
<path class="st3" d="M482.91,958.7c2.87,0.01,6.06-0.46,8.87,0.22c3.37,0.82,6.85,3.85,8.58,6.78c2.36,3.99,2.66,8.33,1.28,12.72
	c-1.55,4.95-4.63,7.21-8.95,9.64c-2.82,0.25-5.96,0.68-8.75,0.06c-3.83-0.86-7.13-3.63-9.23-6.89c-2.09-3.26-2.89-7.51-1.99-11.29
	C474.15,964.02,478.07,961.57,482.91,958.7z"/>
<path class="st3" d="M687.42,934.21c3.05,0.29,6.87,0.39,9.49,2.1c3.45,2.25,5.86,6.55,6.54,10.51c0.73,4.22-0.33,8.37-2.91,11.77
	c-2.88,3.8-6.3,5.25-10.93,5.93c-2.27,0.09-4.3-0.14-6.41-1.03c-3.96-1.68-7.29-5.19-8.82-9.19c-1.4-3.68-1.17-8.27,0.71-11.76
	C677.87,937.39,682.07,935.59,687.42,934.21z"/>
<path class="st3" d="M12.68,401.97c2.71-0.1,5.39-0.02,8,0.81c3.76,1.18,7.2,4.72,8.75,8.32c1.79,4.15,1.73,8.64,0,12.79
	c-2.19,5.27-6.32,7.45-11.36,9.41c-2.41,0.06-4.61-0.01-6.91-0.81c-4.25-1.47-7.5-4.51-9.29-8.63c-1.67-3.84-1.79-7.93-0.24-11.82
	C3.78,406.65,7.59,404.22,12.68,401.97z"/>
<path class="st3" d="M1598.5,571.02c2.57-0.07,4.99-0.03,7.49,0.6c4.19,1.05,7.89,3.56,10.02,7.4c2.12,3.81,2.48,8.45,1.22,12.59
	c-1.63,5.36-5.71,8.03-10.27,10.67c-3.03,0.33-6.94,0.7-9.88-0.37c-3.59-1.31-6.63-4.43-8.35-7.79c-1.94-3.77-2.36-8.82-0.99-12.85
	C1589.52,575.97,1593.67,573.26,1598.5,571.02z"/>
<path class="st3" d="M1083.68,45.36l5.96,26.36c9.89,3.72,20.46,5,30.78,7.08c-10.29,1.51-21.27,3.02-30.88,7.18
	c-2.63,7.99-3.93,16.51-5.58,24.76c-2.62-6.84-2.38-16.02-6.31-22.2c-4.59-7.22-22.28-8.31-29.96-9.58
	c9.43-3.24,19.79-3.66,29.43-6.97C1080.23,63.55,1081.83,54.16,1083.68,45.36z"/>
<path class="st4" d="M1429.44,380.07c5.24,0.11,9.35,0.66,14.18,2.76c6.88,3,10.9,10.48,13.28,17.18
	c8.49,23.96-0.91,46.51-11.15,68.02l-1.34,1.8h-0.71c0.58-18.66-1.48-38.95-13.29-54.33c-3.48-4.55-9.51-8.96-12.01-14.01
	c-1.24-2.5-0.95-8.5-0.05-11.06C1420.36,384.73,1424.3,382.43,1429.44,380.07z"/>
<path class="st4" d="M1525.8,464.95c6.56-0.3,12.94-0.53,19.42,0.82c6.18,1.29,13.24,4.23,16.74,9.81c2.71,4.33,3.48,9.24,2.31,14.2
	c-0.96,4.01-4.64,8.72-8.29,10.62c-10.15,5.26-27.81-6.18-38.02-9.59c-17.31-5.14-34.21-4.56-52.05-4.37
	C1484.98,475.87,1504.01,467.7,1525.8,464.95z"/>
<path class="st4" d="M1525.13,395.5l3.9,0.16c5.37,0.47,9.83,1.83,13.28,6.23c2.84,3.64,3.75,8.12,3.28,12.64
	c-0.49,4.82-3.51,9.2-7.54,11.85c-6.93,4.55-17.47,6.2-25.33,9.26c-16.24,6.34-31.15,16.31-44.75,27.09l-11.77,11.02l21.58-36.02
	C1488.72,420.74,1504.47,399.97,1525.13,395.5z"/>
<path class="st4" d="M598.31,94.24c12.08-1.12,23.73,0.95,35.25,4.53c36.51,11.34,60.06,36.21,77.5,69.16l-12.36-9.46
	c-22.63-15-49.75-22.65-76.77-23.66c-8.59-0.32-23.99,1.67-31.59-2.08c-4.6-2.27-8.22-6.27-9.92-11.13
	c-1.58-4.51-0.74-10.58,1.34-14.74C585.35,99.68,591.05,96.7,598.31,94.24z"/>
<path class="st4" d="M832.76,58.01l4.42-0.07c8.27-0.01,14.35,1.99,20.24,7.97c5.23,5.31,7.89,11.92,7.66,19.38
	c-0.18,6.03-2.56,10.1-7.41,13.62c-7.71,5.58-19.62,8.83-28.35,12.77c-21.44,9.68-38.14,22.67-55.04,38.79
	c-5.82,6.12-10.83,13.12-15.49,20.14l8.18-25.81C778.28,117.28,804.83,69.65,832.76,58.01z"/>
<path class="st3" d="M99.48,470.78c1.72,0.92,9.67,25.42,11.41,29.07c1.97,4.14,4.29,8.63,7.67,11.82c4.4,4.16,10.64,6.3,16.19,8.43
	l25.21,9.14c-1.79,2.08-6.51,3.35-9.13,4.34c-8.83,3.35-18.38,6.11-26.72,10.53c-14.37,7.6-19.99,31.03-24.28,45.6
	c-6.58-11.42-7.76-26.26-15.69-37.11l-0.43-0.58c-8.51-11.61-32.05-17.44-45.28-22.07L70.8,517.5
	C89.62,508.46,93.15,489.03,99.48,470.78z"/>
<path class="st4" d="M743.17,0.09c4.51-0.38,9.84,0.39,14.05,2.08c7.91,3.18,15.2,8.79,18.44,16.87c4.68,11.71,2.11,24.7-0.23,36.65
	c-5.43,27.78-15.35,55.46-26.74,81.34l-6.5,16.01c0.86-17.31,2.67-34.55,1.98-51.92c-1.03-25.91-8.5-49.93-15.91-74.52
	c-1.84-6.09-3.17-11.76,0.19-17.61C731.75,3.24,737.12,1.57,743.17,0.09z"/>
<path class="st4" d="M645.72,10.77c12.47,0.93,21.14,5.36,29.91,14.34c7.38,7.56,13.12,16.71,18.69,25.63
	c19.56,31.38,31.14,65.59,30.85,102.75l-6.07-17.88c-12.02-29.98-33.94-53.68-62.08-69.19c-8.12-4.48-19.04-7.99-26.13-13.77
	c-4.86-3.97-8.71-9.75-9.35-16.09c-0.63-6.2,0.76-12.1,4.76-16.97C631.63,13.09,637.74,11.64,645.72,10.77z"/>
<path class="st5" d="M1450.32,497.17c9.13,4.57,15.18,11.8,21.91,19.24c26.02,28.79,44.19,61.77,56.39,98.54
	c19,57.26,14.72,123.67-12.47,177.58c-28.23,55.96-79.98,102.18-139.83,121.79c-64.02,20.98-136.23,17.74-196.72-13.07l-22.46-13.2
	l0.35,20.62l-411.09,0.55l0.25-54.05l7.83,0.14c11.51,1.6,24.69,0.51,36.42,0.55l77.69-0.03l248.36,0.17l0.01-27.89
	c30.34,17.31,63.42,31.03,98.09,36.77c65.84,10.92,133.37-1.27,188.08-40.61c46.99-33.79,81.44-88.61,90.79-145.91
	c7.3-44.71,2.42-92.97-15.94-134.56C1470.46,526.81,1461.14,512.18,1450.32,497.17z"/>
<path class="st6" d="M516.01,451.83c1.59,33.56,13.98,61.83,38.99,84.46c3.45,3.12,7.25,5.66,11.21,8.07
	c16.13,11.72,36.98,16.65,56.57,17.89l-0.08,103.37l-0.05,29.01c-0.01,3.64,0.62,8.81-0.49,12.18c-2.55,0.75-6.84-0.43-8.7,0.38
	l1.13,0.38c7.8,1.51,18.6,0.16,26.56-0.35c33.23-2.1,65.46-9.86,95.75-23.74c10.96-5.02,21.3-11.21,31.74-17.2l-0.5,0.68
	c-4.94,6.6-11.45,12.44-17.18,18.39l-26.64,28.18c-1.69,1.79-7.64,6.85-8.38,8.86c-0.61,1.65-0.1,5.85-0.04,7.73
	c0.22,7.54,0.77,15.09,0.5,22.63l-0.79-12.39c-45.91,16.33-91.34,18.19-139.13,10.11l-0.39,154.24l-459.38,0.18l0.39-50.9
	l242.1,0.13l2.11-1.86l0.1-143.98l107.65,0.34c-6.1-1.56-13.67-7.44-18.86-11.04c-14.47-10.05-27.78-20.3-39.65-33.44
	c-10.51-11.65-19-24.53-28.31-37.07c2.07-3.54,6.37-6.96,9.32-9.89l20.53-20.33c-0.73-2.76-4.57-7.14-6.24-9.74
	c-4.06-6.32-7.95-12.74-11.32-19.46c-18-35.9-26.29-75.56-27.57-115.51L516.01,451.83z"/>
<path class="st7" d="M471.58,708.81l67.32-0.26l-0.04,145.68l-67.39-0.1L471.58,708.81z"/>
<path class="st0" d="M361.39,708.3l107.65,0.34l2.53,0.17l-0.11,145.32l-112.29,0.02l2.11-1.86L361.39,708.3z"/>
<path class="st8" d="M516.01,451.83c1.59,33.56,13.98,61.83,38.99,84.46c3.45,3.12,7.25,5.66,11.21,8.07
	c16.13,11.72,36.98,16.65,56.57,17.89l-0.08,103.37l-0.05,29.01c-0.01,3.64,0.62,8.81-0.49,12.18c-2.55,0.75-6.84-0.43-8.7,0.38
	l-26.76-2.43c-45.04-6.07-90.74-26.54-125.65-55.52c-18.63-15.47-34.32-33.2-48.98-52.38c-0.73-2.76-4.57-7.14-6.24-9.74
	c-4.06-6.32-7.95-12.74-11.32-19.46c-18-35.9-26.29-75.56-27.57-115.51L516.01,451.83z"/>
<path class="st8" d="M159.92,348.12l-88.6-97.64c25.9-27.62,59.34-49.03,93.92-64.08c70.87-30.85,159.64-30.53,231.28-2.3
	c27.73,12.61,55.88,27.81,78.92,48c-52.79,36.59-92.16,98.18-103.64,161.37c-3.49,19.23-6.07,39.1-4.86,58.68
	c1.29,39.95,9.57,79.61,27.57,115.51c3.37,6.72,7.26,13.14,11.32,19.46c1.67,2.6,5.52,6.98,6.24,9.74l-20.53,20.33
	c-2.95,2.93-7.25,6.36-9.32,9.89c9.31,12.54,17.8,25.42,28.31,37.07c11.87,13.14,25.18,23.39,39.65,33.44
	c5.19,3.61,12.76,9.48,18.86,11.04l-107.65-0.34l-0.1,143.98l-2.11,1.86l-242.1-0.13l-38.79,0.1c-0.07-15.16-1.12-137.14,0-139.28
	c1.46-2.78,7.3-7.13,9.68-9.47l33.4-32.93l98.48-98.2c36.93-36.9,77.43-71.92,104.43-117.17c8.83-14.81,16.2-29.54,20.09-46.46
	c1.72-7.47,2.01-15.13,2.42-22.76c-6.48-4.57-11.36-9.92-18.71-13.45c-34.09-16.38-78.37-6.69-107.96,14.65
	c-2.78,2-11.89,10.82-14.4,10.84L159.92,348.12z"/>
<path class="st9" d="M382.23,627.08c9.31,12.54,17.8,25.42,28.31,37.07c11.87,13.14,25.18,23.39,39.65,33.44
	c5.19,3.61,12.76,9.48,18.86,11.04l-107.65-0.34l-59.99-0.04l80.2-81.17L382.23,627.08z"/>
<path class="st6" d="M159.92,348.12c8.84-7.21,17.6-14.45,27.37-20.39c25.9-15.74,55.85-23.69,86.14-20.45
	c22.42,2.4,41.28,10.75,55.68,28.57c11.68,14.46,16.81,33.74,17.69,51.99c-6.48-4.57-11.36-9.92-18.71-13.45
	c-34.09-16.38-78.37-6.69-107.96,14.65c-2.78,2-11.89,10.82-14.4,10.84L159.92,348.12z"/>
<path class="st10" d="M396.52,184.1c27.73,12.61,55.88,27.81,78.92,48c-52.79,36.59-92.16,98.18-103.64,161.37
	c-3.49,19.23-6.07,39.1-4.86,58.68c1.29,39.95,9.57,79.61,27.57,115.51c3.37,6.72,7.26,13.14,11.32,19.46
	c1.67,2.6,5.52,6.98,6.24,9.74l-20.53,20.33c-2.95,2.93-7.25,6.36-9.32,9.89l-0.62,0.01c-0.43-3.34-3.18-6.88-4.86-9.83l-7.88-15.49
	c-13.2-29.36-23.44-61.64-25.44-93.93c-2.49-40.17,2.41-81.78,16.69-119.56l17-40.86c4.42-11.71,7.79-24,10.82-36.14
	c6.6-26.48,9.95-54.56,10.17-81.84L396.52,184.1z"/>
<path class="st11" d="M1097.45,218.8c1.57-13.93,0.27-29.56,0.27-43.67l353.32-0.26l0.08,36.64l49.71,0.1l0.35,157.57l-201.8-0.42
	l0.3,34.97c0.04,5.42,0.71,11.65,0.08,16.99c15.61,2.02,31.42,4.43,46.57,8.75c31.01,8.84,57.61,24.18,82.15,44.91
	c5.4,4.56,10.07,9.63,14.75,14.92c2.22,2.52,4.47,5.84,7.08,7.85c10.82,15.02,20.14,29.64,27.66,46.66
	c18.36,41.59,23.24,89.85,15.94,134.56c-9.35,57.3-43.8,112.12-90.79,145.91c-54.71,39.34-122.23,51.53-188.08,40.61
	c-34.66-5.75-67.74-19.47-98.09-36.77c-9.54-6.63-19.46-12.5-28.66-19.67c-16.35-12.74-30.55-28.48-42.86-45.06l70.74-60.3
	l-70.76-0.07l-1.11,0.48c-9.86-1.54-22.01-0.24-32.08-0.23l-73.89,0.08c38.56-29.88,73.21-62.14,105.89-98.37
	c21.01-23.2,37.46-47.09,51.85-74.82h0.94l0.13,8.89L1097.45,218.8z"/>
<path class="st2" d="M1396.14,696.64c3.29-0.46,6.78-0.64,10.08-0.22c3.61,0.46,6.93,2.75,9.07,5.64c2.94,3.94,3.67,9.3,2.67,14.02
	c-1.19,5.68-4.79,8.35-9.32,11.36c-3.38,0.85-6.31,1.34-9.78,0.63c-4.35-0.89-8.12-4.08-10.45-7.79c-2.19-3.45-2.61-9.13-1.57-13.02
	C1388.2,702.21,1392,699.35,1396.14,696.64z"/>
<path class="st2" d="M1419.06,649.98c2.98-0.33,6.87-0.62,9.81,0.01c3.78,0.82,7.58,3.95,9.6,7.16c2.5,3.96,3.23,9.86,1.81,14.37
	c-1.66,5.29-5.75,7.74-10.3,10.19c-2.5,0.31-4.83,0.56-7.32,0.1c-5.16-0.95-9.7-3.64-12.47-8.19c-2.09-3.47-2.42-8.66-1.33-12.56
	C1410.36,655.64,1414.52,652.68,1419.06,649.98z"/>
<path class="st2" d="M1365.61,734.52c3.42-0.15,7.26-0.57,10.55,0.51c3.61,1.18,7.12,4.03,8.79,7.5c2.03,4.21,2.13,9.9,0.48,14.26
	c-1.86,4.94-6.73,7.76-11.21,9.9c-2.65,0.21-5.4,0.17-8.02-0.28c-3.53-0.6-7.3-3.42-9.3-6.39c-2.77-4.13-3.85-9.33-2.61-14.17
	C1355.77,740.18,1360.82,737.08,1365.61,734.52z"/>
<path class="st2" d="M1323.56,761.12c4.97-0.25,8.72-0.44,13.06,2.52c3.33,2.28,5.56,6.09,6.14,10.08c0.58,4.02-0.35,7.79-2.8,11.03
	c-6.83,9.05-32.93,14.42-43.87,15.84c-2.95-0.07-6.44-0.11-9.19-1.26c-3.47-1.45-6.78-4.83-8.17-8.3
	c-1.41-3.55-1.19-8.96,0.48-12.39c1.42-2.91,3.89-5.01,6.77-6.43c5.64-2.77,13.32-2.91,19.43-4.53
	C1311.59,766.04,1317.62,763.45,1323.56,761.12z"/>
<path class="st5" d="M1451.12,211.52l49.71,0.1l0.35,157.57l-201.8-0.42l0.3,34.97c0.04,5.42,0.71,11.65,0.08,16.99l-58.38,0.35
	l0.04-110.18l209.79,0.12L1451.12,211.52z"/>
<path class="st9" d="M1044.25,604.99c21.01-23.2,37.46-47.09,51.85-74.82h0.94l0.13,8.89l-0.13,15.22l99.98-0.08
	c25,0.05,51.91-1.38,76.48,3.69c18.45,3.8,35.82,10.68,49.44,24.06c8.77,8.62,14.71,18.84,19.89,29.84
	c8.73,27.33,10.14,58.23-3.29,84.39c-8.35,16.28-21.89,28.09-39.43,33.48c-31.9,9.81-68.71,0.58-97.3-14.87
	c-19.08-10.31-36.88-24.93-51.21-41.14l-24.39,21.13c-3.4,2.77-7.12,6.35-11.04,8.31l-70.76-0.07l-1.11,0.48
	c-9.86-1.54-22.01-0.24-32.08-0.23l-73.89,0.08C976.92,673.48,1011.57,641.21,1044.25,604.99z"/>
<path class="st0" d="M1250.69,650.37l4.31-0.32c2.98,1.1,4.92,2.22,6.52,5.07c1.23,2.2,1.37,5.24,0.54,7.6
	c-1.06,3.05-3.45,4.65-6.13,6.15c-1.75,0.29-3.46,0.44-5.21-0.01c-2.43-0.63-4.76-2.64-5.94-4.85c-1.11-2.1-1.14-5.24-0.44-7.47
	C1245.37,653.25,1247.74,651.75,1250.69,650.37z"/>
<path class="st5" d="M1044.25,604.99c21.01-23.2,37.46-47.09,51.85-74.82h0.94l0.13,8.89l-0.13,15.22l99.98-0.08
	c25,0.05,51.91-1.38,76.48,3.69c18.45,3.8,35.82,10.68,49.44,24.06c8.77,8.62,14.71,18.84,19.89,29.84l-201.57,0.3l0.09-21.5
	c0.01-3.53,0.42-7.57-0.37-11c-16.06,37.18-39.63,68.5-68.09,97.16l-18.49,17.44c-2.96,2.73-6.66,5.53-8.98,8.81l-1.11,0.48
	c-9.86-1.54-22.01-0.24-32.08-0.23l-73.89,0.08C976.92,673.48,1011.57,641.21,1044.25,604.99z"/>
<path class="st2" d="M746.09,211.04c19.52-12.8,38.38-23.88,60.3-32.31c74.91-28.78,164.03-23.73,237,8.82
	c19.43,8.81,36.78,18.71,54.07,31.25l-0.27,320.26l-0.13-8.89h-0.94c-14.39,27.73-30.84,51.62-51.85,74.82
	c-32.68,36.22-67.33,68.49-105.89,98.37l73.89-0.08c10.07-0.01,22.22-1.31,32.08,0.23l1.11-0.48l70.76,0.07l-70.74,60.3
	c12.31,16.58,26.51,32.32,42.86,45.06c9.2,7.17,19.12,13.04,28.66,19.67l-0.01,27.89l-248.36-0.17l-77.69,0.03
	c-11.72-0.04-24.9,1.05-36.42-0.55l-7.83-0.14l-30.05,0.07l-0.21-102.47c0.27-7.54-0.28-15.1-0.5-22.63
	c-0.06-1.88-0.56-6.09,0.04-7.73c0.74-2.01,6.68-7.07,8.38-8.86l26.64-28.18c5.74-5.95,12.24-11.79,17.18-18.39l0.5-0.68
	c-10.45,5.98-20.79,12.18-31.74,17.2c-30.29,13.87-62.52,21.63-95.75,23.74c-7.95,0.5-18.76,1.86-26.56,0.35l-1.13-0.38
	c1.86-0.81,6.15,0.37,8.7-0.38c1.11-3.37,0.49-8.55,0.49-12.18l0.05-29.01l0.08-103.37c-19.58-1.24-40.44-6.17-56.57-17.89
	c-3.96-2.41-7.77-4.95-11.21-8.07c-25.01-22.63-37.4-50.9-38.99-84.46l-149.08,0.32c-1.21-19.58,1.36-39.46,4.86-58.68
	c11.48-63.19,50.85-124.78,103.64-161.37c32.26-21.69,65.67-37.9,104.25-44.8c13.74-2.46,27.76-3.23,41.68-3.89
	C665.78,183.29,705.88,192.44,746.09,211.04z"/>
<path class="st12" d="M1045.43,703.02l70.76,0.07l-70.74,60.3c12.31,16.58,26.51,32.32,42.86,45.06
	c9.2,7.17,19.12,13.04,28.66,19.67l-0.01,27.89l-248.36-0.17l-77.69,0.03c-11.72-0.04-24.9,1.05-36.42-0.55
	c9.49-1.15,19.99-0.26,29.61-0.23l57.04,0.02l202.82,0.1l0.36-151.71L1045.43,703.02z"/>
<path class="st5" d="M850.41,316c25.89-10.85,60.09-13.67,86.41-2.7c20.09,8.37,35.04,24.25,43.08,44.41l4.57,15.78
	c6.1,41.12-21.71,81.87-45.07,113.32l-15.26,19.06l-60.25,66.07c-4.87,5.22-14.02,18.32-20.36,20.72
	c6.7-11.58,13.72-22.61,19.53-34.72c15.77-32.85,24.14-69.65,24.68-106.05C888.18,403.62,875.97,357,850.41,316z"/>
<path class="st9" d="M924.14,505.86c-0.49-4.16,0.12-8.9,0.22-13.12l0.28-24.22c0.01-29.5-7.37-57.15-17.93-84.48
	c11.2-11.24,22.11-17.94,37.89-20.95c15.67-2.99,27.14,1.74,39.87,10.39c6.1,41.12-21.71,81.87-45.07,113.32L924.14,505.86z"/>
<path class="st12" d="M1043.38,187.56c19.43,8.81,36.78,18.71,54.07,31.25l-0.27,320.26l-0.13-8.89h-0.94
	c-14.39,27.73-30.84,51.62-51.85,74.82c-2.12-11.09-0.63-25.06-0.63-36.44l-0.01-78.51L1043.38,187.56z"/>
<path class="st13" d="M621.36,183.41c44.42-0.12,84.52,9.03,124.72,27.64c-19.08,13.24-35.94,30.11-51.01,47.68
	c35.89,15.75,62.43,48.53,85.35,79.31l13.61,19.23c15.04-17.7,34.9-32.32,56.38-41.27c25.56,41,37.77,87.62,37.33,135.88
	l-119.94,0.5c-3.11-0.53-7.16-0.07-10.36-0.08l-21.48-0.1c-0.1-14.65-1.49-29.85-7.12-43.52c-3.68-16.33-15.09-33.45-26.44-45.4
	c-21.92-23.09-49.21-34.87-80.76-35.74c1.58-14.79,0.14-31.32,0.11-46.27L621.36,183.41z"/>
<path class="st9" d="M621.64,327.54c31.55,0.87,58.84,12.66,80.76,35.74c11.34,11.95,22.76,29.06,26.44,45.4
	c5.63,13.67,7.02,28.86,7.12,43.52c-1.62,32.63-11.4,60.87-36.11,83.12c-20.67,18.62-49.39,28.05-77.06,26.93
	c-19.58-1.24-40.44-6.17-56.57-17.89c-3.96-2.41-7.77-4.95-11.21-8.07c-25.01-22.63-37.4-50.9-38.99-84.46
	c0.17-32.73,9.51-65.28,32.11-89.78C567.71,340.82,592.78,328.75,621.64,327.54z"/>
<path class="st6" d="M621.64,327.54c31.55,0.87,58.84,12.66,80.76,35.74c11.34,11.95,22.76,29.06,26.44,45.4l-0.58-0.41
	c-5.85-4.29-10.29-10.7-15.74-15.56c-19.78-17.63-46.05-29.75-72.99-26.12c-25.68,3.46-45.39,17.48-60.82,37.84
	c-20.47,27.01-28.18,65.79-23.37,99.1c1.25,8.68,3.1,16.85,5.75,25.22c1.62,5.12,4.17,10.37,5.13,15.61
	c-3.96-2.41-7.77-4.95-11.21-8.07c-25.01-22.63-37.4-50.9-38.99-84.46c0.17-32.73,9.51-65.28,32.11-89.78
	C567.71,340.82,592.78,328.75,621.64,327.54z"/>
<path class="st10" d="M767.79,452.37l119.94-0.5c-0.54,36.4-8.91,73.2-24.68,106.05c-5.81,12.11-12.82,23.14-19.53,34.72
	c-12.46,16.12-25.17,33.98-41.18,46.69c-6.22,7.71-16.01,14.31-24.05,20.05c-2.16,1.55-8.55,5.03-9.65,6.91
	c-10.45,5.98-20.79,12.18-31.74,17.2c-30.29,13.87-62.52,21.63-95.75,23.74c-7.95,0.5-18.76,1.86-26.56,0.35l-1.13-0.38
	c1.86-0.81,6.15,0.37,8.7-0.38c1.11-3.37,0.49-8.55,0.49-12.18l0.05-29.01l0.08-103.37c27.67,1.12,56.39-8.31,77.06-26.93
	c24.71-22.25,34.49-50.49,36.11-83.12l21.48,0.1C760.63,452.31,764.68,451.85,767.79,452.37z"/>
<path class="st3" d="M475.43,232.1c32.26-21.69,65.67-37.9,104.25-44.8c13.74-2.46,27.76-3.23,41.68-3.89l0.38,97.86
	c0.03,14.95,1.47,31.49-0.11,46.27c-28.85,1.21-53.93,13.28-73.51,34.51c-22.6,24.49-31.94,57.05-32.11,89.78l-149.08,0.32
	c-1.21-19.58,1.36-39.46,4.86-58.68C383.28,330.28,422.65,268.69,475.43,232.1z"/>
<path class="st8" d="M555.94,250.93c3.39-0.5,7.36-0.78,10.73,0c3.65,0.84,7.28,3.96,9.15,7.13c2.12,3.61,2.7,7.98,1.51,12.01
	c-1.68,5.66-5.7,8.33-10.49,11.17c-1.8,0.4-3.53,0.57-5.38,0.45c-4.34-0.28-8.91-2.02-11.67-5.53c-3.31-4.22-4.19-9.78-3.11-14.93
	C547.74,256.15,551.86,253.45,555.94,250.93z"/>
<path class="st8" d="M475.24,317.31c3.22-0.27,6.31-0.54,9.47,0.33c4.28,1.17,7.76,3.91,9.85,7.84c1.98,3.71,2.14,8.32,0.91,12.29
	c-1.7,5.48-6.1,8-10.86,10.47c-2.43,0.36-4.69,0.41-7.12,0c-4.34-0.73-8.33-3.2-10.67-6.97c-2.33-3.76-2.86-8.4-1.86-12.67
	C466.27,323,470.69,320.13,475.24,317.31z"/>
<path class="st8" d="M514.72,278.47c2.01-0.04,3.88,0.11,5.82,0.67c4.52,1.3,7.85,4,9.91,8.26c1.86,3.84,2.31,8.7,0.64,12.63
	c-2.61,6.17-6.8,8.65-12.74,10.85c-3.16-0.05-6.62-0.32-9.48-1.75c-3.97-1.98-7.22-5.77-8.45-10.07c-1.12-3.91-0.5-8.65,1.52-12.14
	C504.96,281.71,509.24,279.92,514.72,278.47z"/>
</svg>
